<svg width="100" height="100" viewBox="0 0 100 100" fill="none" xmlns="http://www.w3.org/2000/svg">
  <rect width="100" height="100" rx="22" fill="#19402d"/>
  <g transform="translate(13, 38) scale(2.0)">
    <path d="M8.36395 24.174C6.77729 24.174 5.34929 23.902 4.07995 23.358C2.81062 22.7914 1.81329 21.998 1.08795 20.978C0.362621 19.958 -4.58285e-05 18.768 -4.58285e-05 17.408H4.14795C4.23862 18.428 4.63529 19.2667 5.33795 19.924C6.06329 20.5814 7.07195 20.91 8.36395 20.91C9.70129 20.91 10.744 20.5927 11.492 19.958C12.24 19.3007 12.614 18.462 12.614 17.442C12.614 16.6487 12.376 16.0027 11.9 15.504C11.4466 15.0054 10.8686 14.62 10.166 14.348C9.48595 14.076 8.53395 13.7814 7.30995 13.464C5.76862 13.056 4.51062 12.648 3.53595 12.24C2.58395 11.8094 1.76795 11.152 1.08795 10.268C0.407954 9.38403 0.0679542 8.20537 0.0679542 6.73203C0.0679542 5.37203 0.407954 4.18203 1.08795 3.16204C1.76795 2.14203 2.71995 1.36003 3.94395 0.816035C5.16795 0.272034 6.58462 3.32594e-05 8.19395 3.32594e-05C10.4833 3.32594e-05 12.3533 0.578033 13.804 1.73403C15.2773 2.86737 16.0933 4.43137 16.252 6.42603H11.968C11.9 5.5647 11.492 4.82803 10.744 4.21603C9.99595 3.60403 9.00995 3.29803 7.78595 3.29803C6.67529 3.29803 5.76862 3.58137 5.06595 4.14803C4.36329 4.7147 4.01195 5.5307 4.01195 6.59603C4.01195 7.32137 4.22729 7.92203 4.65795 8.39803C5.11129 8.85137 5.67795 9.21403 6.35795 9.48603C7.03795 9.75803 7.96729 10.0527 9.14595 10.37C10.71 10.8007 11.9793 11.2314 12.954 11.662C13.9513 12.0927 14.79 12.7614 15.47 13.668C16.1726 14.552 16.524 15.742 16.524 17.238C16.524 18.4394 16.1953 19.5727 15.538 20.638C14.9033 21.7034 13.9626 22.5647 12.716 23.222C11.492 23.8567 10.0413 24.174 8.36395 24.174ZM36.6075 0.306033L28.7875 15.368V23.936H24.9115V15.368L17.0575 0.306033H21.3755L26.8495 11.9L32.3235 0.306033H36.6075Z" fill="white"/>
  </g>
</svg>
